Groundhog Day 1993 BluRay 1080p ac3 x264-LoNeWoLf

Encoded by Tequila-Bob a.k.a. bobnjeff a.k.a.LoNeWoLf

Source - NTSC BluRay Disc.
 
http://www.imdb.com/title/tt0107048/

Groundhog Day (1993) 
  101 min  -  Comedy | Drama | Fantasy   -  12 February 1993 (USA) 
  Users: 8.2/10 (139,367 votes) 453 reviews | Critics: 98 reviews 
A weatherman finds himself living the same day over and over again.

Rated PG for some thematic elements 


Director: Harold Ramis
Writers: Danny Rubin (screenplay), Harold Ramis (screenplay)
Stars:Bill Murray, Andie MacDowell and Chris Elliott

[img]http://torrent-stats.info/fab4/50d07f4.png[/img

Format : Matroska 
File size : 8.14 GiB 
Duration : 1h 41mn 
Overall bit rate : 11.5 Mbps 
Encoded date : UTC 2010-11-21 13:46:26 
Writing application : mkvmerge v4.4.0 ('Die Wiederkehr') built on Oct 31 2010 21:52:48 
Writing library : libebml v1.0.0 + libmatroska v1.0.0 

Video 
ID : 1 
Format : AVC 
Format/Info : Advanced Video Codec 
Format profile : High@L4.1 
Format settings, CABAC : Yes 
Format settings, ReFrames : 7 frames 
Muxing mode : Container profile=Unknown@4.1 
Codec ID : V_MPEG4/ISO/AVC 
Duration : 1h 41mn 
Bit rate : 10.8 Mbps 
Width : 1 920 pixels 
Height : 1 040 pixels 
Display aspect ratio : 16:9 
Frame rate : 23.976 fps 
Color space : YUV 
Chroma subsampling : 4:2:0 
Bit depth : 8 bits 
Scan type : Progressive 
Bits/(Pixel*Frame) : 0.226 
Stream size : 7.66 GiB (94%) 
Writing library : x264 core 98 r1649 c54c47d 
Encoding settings : cabac=1 / ref=8 / deblock=1:0:0 / analyse=0x3:0x133 / me=umh / subme=7 / psy=1 / psy_rd=1.00:0.15 / mixed_ref=1 / me_range=24 / chroma_me=0 / trellis=1 / 8x8dct=1 / cqm=0 / deadzone=21,11 / fast_pskip=1 / chroma_qp_offset=-3 / threads=6 / sliced_threads=0 / nr=0 / decimate=0 / interlaced=0 / constrained_intra=0 / bframes=5 / b_pyramid=1 / b_adapt=1 / b_bias=0 / direct=1 / weightb=1 / weightp=2 / keyint=250 / keyint_min=25 / scenecut=40 / intra_refresh=0 / rc_lookahead=50 / rc=2pass / mbtree=1 / bitrate=10815 / ratetol=1.0 / qcomp=0.60 / qpmin=10 / qpmax=51 / qpstep=4 / cplxblur=20.0 / qblur=0.5 / ip_ratio=1.40 / aq=1:1.50 
Language : English 

Audio 
ID : 2 
Format : AC-3 
Format/Info : Audio Coding 3 
Mode extension : CM (complete main) 
Codec ID : A_AC3 
Duration : 1h 41mn 
Bit rate mode : Constant 
Bit rate : 448 Kbps 
Channel(s) : 6 channels 
Channel positions : Front: L C R, Side: L R, LFE 
Sampling rate : 48.0 KHz 
Bit depth : 16 bits 
Stream size : 324 MiB (4%) 
Title : 3/2+1 
Language : English 

Text 
Language : English  
Language : French 
Language : Spanish 
Language : Portuguese 
Language : Chinese 
Language : Arabic 
Language : Korean 
Language : Thai 
Language : Dutch 
Language : Indonesian 


Menu Chapters 15


See the full size 1920x1040 PNG files at the link below
 
http://s1015.photobucket.com/albums/af279/tequila-bob/Groundhog%20Day/
